<svg viewBox="0 0 195 195" xmlns="http://www.w3.org/2000/svg">
  <g fill-rule="evenodd">
    <path d="M 46.5 65.2 C 46.7 63.6 46.1 62 44.9 60.9 L 32.7 46.2 L 32.7 44 L 70.6 44 L 100 108.4 L 125.8 44 L 162 44 L 162 46.2 L 151.5 56.2 C 150.6 56.9 150.2 58 150.4 59.2 L 150.4 132.8 C 150.2 134 150.6 135.1 151.5 135.8 L 161.8 145.8 L 161.8 148 L 110.4 148 L 110.4 145.8 L 121 135.5 C 122 134.5 122 134.2 122 132.6 L 122 73 L 92.6 147.8 L 88.6 147.8 L 54.4 73 L 54.4 123.1 C 54.1 125.2 54.8 127.3 56.3 128.9 L 70 145.6 L 70 147.8 L 31 147.8 L 31 145.6 L 44.8 128.9 C 46.2 127.3 46.9 125.2 46.5 123.1 L 46.5 65.2 Z M 0 0 H 195 V 195 H 0 V 0 z"/>
  </g>
</svg>
