<svg xmlns="http://www.w3.org/2000/svg" viewBox="0 0 120 120">
  <g transform="translate(0,120) scale(0.1,-0.1)">
    <path d="M801 1116 c-54 -89 -64 -126 -32 -126 21 0 136 183 126 200 -18 29
-46 7 -94 -74z"/>
    <path d="M692 1178 c-5 -7 -18 -39 -27 -71 -18 -61 -12 -85 18 -74 18 7 50 98
45 128 -4 27 -21 35 -36 17z"/>
    <path d="M915 1050 c-94 -95 -99 -101 -82 -117 16 -17 22 -12 117 82 55 55
100 108 100 117 0 38 -39 14 -135 -82z"/>
    <path d="M420 1094 c-138 -37 -245 -138 -296 -279 -32 -87 -33 -224 -5 -308
91 -265 390 -388 648 -267 150 70 249 229 241 388 l-3 60 -190 -76 c-104 -41
-192 -77 -194 -79 -3 -2 9 -33 27 -68 39 -79 23 -88 -34 -17 -20 26 -40 51
-44 55 -4 4 -44 -7 -89 -24 l-82 -33 -25 29 c-14 16 -23 34 -20 39 50 125 212
531 222 559 l13 37 -57 -1 c-31 0 -82 -7 -112 -15z m90 -39 c0 -2 -50 -131
-111 -286 l-111 -281 50 -51 c55 -55 44 -55 158 -9 l51 20 44 -59 c24 -32 50
-59 57 -59 17 0 92 50 92 62 0 5 -12 31 -26 59 -14 28 -24 52 -22 54 12 10
261 105 265 101 9 -9 -17 -106 -41 -154 -61 -116 -172 -189 -316 -206 -207
-25 -415 136 -448 346 -25 163 55 332 196 415 52 31 162 63 162 48z"/>
    <path d="M973 938 c-80 -48 -101 -76 -72 -93 5 -4 53 19 105 50 67 40 94 61
94 75 0 32 -38 23 -127 -32z"/>
    <path d="M987 814 c-49 -15 -68 -37 -49 -56 8 -8 28 -6 72 7 62 19 86 36 75
55 -8 14 -40 12 -98 -6z"/>
    <path d="M337 174 c-19 -19 -2 -35 61 -54 85 -27 196 -29 290 -6 76 19 104 38
84 58 -9 9 -25 8 -64 -1 -121 -28 -158 -31 -237 -15 -121 25 -126 26 -134 18z"/>
    <path d="M403 63 c-7 -3 -13 -13 -13 -23 0 -29 68 -43 192 -38 85 3 111 7 125
21 16 15 16 19 2 32 -12 13 -21 14 -44 5 -34 -13 -177 -14 -220 -2 -16 5 -36
7 -42 5z"/>
  </g>
</svg>
